<svg xmlns="http://www.w3.org/2000/svg" version="1.1" xmlns:xlink="http://www.w3.org/1999/xlink" xmlns:svgjs="http://svgjs.dev/svgjs" width="2000" height="1543" viewBox="0 0 2000 1543"><g transform="matrix(1,0,0,1,-0.29404836948799584,0.6246963562753081)"><svg viewBox="0 0 320 247" data-background-color="#fefbf6" preserveAspectRatio="xMidYMid meet" height="1543" width="2000" xmlns="http://www.w3.org/2000/svg" xmlns:xlink="http://www.w3.org/1999/xlink"><g id="tight-bounds" transform="matrix(1,0,0,1,0.04704773911808502,-0.09999999999999432)"><svg viewBox="0 0 319.90590452176383 247.2" height="247.2" width="319.90590452176383"><g><svg viewBox="0 0 397.4975999999999 307.15721507827016" height="247.2" width="319.90590452176383"><g><rect width="397.4975999999999" height="5.580530580996046" x="0" y="172.62739185316406" fill="#000000" opacity="1" stroke-width="0" stroke="transparent" fill-opacity="1" class="rect-qz-0" data-fill-palette-color="primary" rx="1%" id="qz-0" data-palette-color="#29231d"></rect></g><g transform="matrix(1,0,0,1,0.9887999999999693,192.8166412325791)"><svg viewBox="0 0 395.52 114.34057384569108" height="114.34057384569108" width="395.52"><g id="textblocktransform"><svg viewBox="0 0 395.52 114.34057384569108" height="114.34057384569108" width="395.52" id="textblock"><g><svg viewBox="0 0 395.52 61.88142292490117" height="61.88142292490117" width="395.52"><g transform="matrix(1,0,0,1,0,0)"><svg width="395.52" viewBox="3.8 -36.5 303.57 47.5" height="61.88142292490117" data-palette-color="#29231d"><path d="M23.1 0L3.8 0 3.8-35 22.8-35Q25.45-35 27.45-33.83 29.45-32.65 30.6-30.65 31.75-28.65 31.75-26.1L31.75-26.1Q31.75-24.35 31.03-22.73 30.3-21.1 29-19.9 27.7-18.7 25.9-18.1L25.9-18.1Q27.95-17.6 29.45-16.3 30.95-15 31.83-13.2 32.7-11.4 32.7-9.3L32.7-9.3Q32.7-6.7 31.5-4.6 30.3-2.5 28.18-1.25 26.05 0 23.1 0L23.1 0ZM8.6-15.8L8.6-4.25 22-4.25Q23.85-4.25 25.15-5.08 26.45-5.9 27.18-7.23 27.9-8.55 27.9-10.05L27.9-10.05Q27.9-11.6 27.15-12.88 26.4-14.15 25.05-14.98 23.7-15.8 21.85-15.8L21.85-15.8 8.6-15.8ZM8.6-30.75L8.6-19.85 21.15-19.85Q22.9-19.85 24.23-20.63 25.55-21.4 26.28-22.68 27-23.95 27-25.35L27-25.35Q27-26.8 26.3-28.03 25.6-29.25 24.35-30 23.1-30.75 21.45-30.75L21.45-30.75 8.6-30.75ZM43.05 0L38.45 0 38.45-36.5 43.05-36.5 43.05 0ZM62.35 0.6L62.35 0.6Q58.45 0.6 55.45-1.18 52.45-2.95 50.7-5.98 48.95-9 48.95-12.75L48.95-12.75Q48.95-16.5 50.7-19.53 52.45-22.55 55.45-24.33 58.45-26.1 62.35-26.1L62.35-26.1Q66.25-26.1 69.27-24.33 72.3-22.55 74.02-19.53 75.75-16.5 75.75-12.75L75.75-12.75Q75.75-9 74.02-5.98 72.3-2.95 69.27-1.18 66.25 0.6 62.35 0.6ZM62.35-3.35L62.35-3.35Q65-3.35 66.95-4.6 68.9-5.85 70-7.98 71.1-10.1 71.1-12.75L71.1-12.75Q71.1-15.4 70-17.53 68.9-19.65 66.95-20.9 65-22.15 62.35-22.15L62.35-22.15Q59.75-22.15 57.77-20.9 55.8-19.65 54.7-17.53 53.6-15.4 53.6-12.75L53.6-12.75Q53.6-10.1 54.7-7.98 55.8-5.85 57.77-4.6 59.75-3.35 62.35-3.35ZM98.84 10.15L85.49 10.15 85.49 6.2 97.99 6.2Q99.84 6.2 100.87 5.1 101.89 4 101.89 2.2L101.89 2.2 101.89-4.8 101.79-4.8Q100.84-3.35 99.49-2.2 98.14-1.05 96.39-0.38 94.64 0.3 92.44 0.3L92.44 0.3Q88.84 0.3 86.09-1.38 83.34-3.05 81.79-6.03 80.24-9 80.24-12.85L80.24-12.85Q80.24-16.6 81.79-19.6 83.34-22.6 86.27-24.35 89.19-26.1 93.34-26.1L93.34-26.1Q97.34-26.1 100.29-24.4 103.24-22.7 104.87-19.68 106.49-16.65 106.49-12.6L106.49-12.6 106.49 2.5Q106.49 6 104.44 8.08 102.39 10.15 98.84 10.15L98.84 10.15ZM93.29-3.65L93.29-3.65Q95.84-3.65 97.77-4.85 99.69-6.05 100.77-8.13 101.84-10.2 101.84-12.8L101.84-12.8Q101.84-15.45 100.79-17.55 99.74-19.65 97.84-20.88 95.94-22.1 93.29-22.1L93.29-22.1Q90.69-22.1 88.82-20.88 86.94-19.65 85.92-17.53 84.89-15.4 84.89-12.75L84.89-12.75Q84.89-10.25 85.92-8.18 86.94-6.1 88.82-4.88 90.69-3.65 93.29-3.65ZM130.84 10.15L117.49 10.15 117.49 6.2 129.99 6.2Q131.84 6.2 132.87 5.1 133.89 4 133.89 2.2L133.89 2.2 133.89-4.8 133.79-4.8Q132.84-3.35 131.49-2.2 130.14-1.05 128.39-0.38 126.64 0.3 124.44 0.3L124.44 0.3Q120.84 0.3 118.09-1.38 115.34-3.05 113.79-6.03 112.24-9 112.24-12.85L112.24-12.85Q112.24-16.6 113.79-19.6 115.34-22.6 118.27-24.35 121.19-26.1 125.34-26.1L125.34-26.1Q129.34-26.1 132.29-24.4 135.24-22.7 136.87-19.68 138.49-16.65 138.49-12.6L138.49-12.6 138.49 2.5Q138.49 6 136.44 8.08 134.39 10.15 130.84 10.15L130.84 10.15ZM125.29-3.65L125.29-3.65Q127.84-3.65 129.77-4.85 131.69-6.05 132.77-8.13 133.84-10.2 133.84-12.8L133.84-12.8Q133.84-15.45 132.79-17.55 131.74-19.65 129.84-20.88 127.94-22.1 125.29-22.1L125.29-22.1Q122.69-22.1 120.82-20.88 118.94-19.65 117.92-17.53 116.89-15.4 116.89-12.75L116.89-12.75Q116.89-10.25 117.92-8.18 118.94-6.1 120.82-4.88 122.69-3.65 125.29-3.65ZM165.14 0L158.59 0Q154.39 0 151.14-1.58 147.89-3.15 146.06-6.03 144.24-8.9 144.24-12.75L144.24-12.75Q144.24-16.55 145.79-19.58 147.34-22.6 150.09-24.35 152.84-26.1 156.49-26.1L156.49-26.1Q160.44-26.1 163.06-24.4 165.69-22.7 166.99-19.83 168.29-16.95 168.29-13.4L168.29-13.4Q168.29-12.85 168.26-12.25 168.24-11.65 168.14-11.2L168.14-11.2 149.14-11.2Q149.39-8.85 150.69-7.23 151.99-5.6 154.01-4.78 156.04-3.95 158.49-3.95L158.49-3.95 165.14-3.95 165.14 0ZM149.09-14.45L149.09-14.45 163.64-14.45Q163.64-15.4 163.44-16.48 163.24-17.55 162.74-18.57 162.24-19.6 161.41-20.43 160.59-21.25 159.36-21.75 158.14-22.25 156.49-22.25L156.49-22.25Q154.74-22.25 153.41-21.58 152.09-20.9 151.14-19.78 150.19-18.65 149.69-17.25 149.19-15.85 149.09-14.45ZM178.59 0L173.99 0 173.99-18.25Q173.99-21.65 175.91-23.58 177.84-25.5 181.24-25.5L181.24-25.5 186.49-25.5 186.49-21.55 182.09-21.55Q180.44-21.55 179.51-20.6 178.59-19.65 178.59-17.95L178.59-17.95 178.59 0ZM216.38 0L203.63 0 203.63-3.95 215.83-3.95Q217.03-3.95 217.91-4.48 218.78-5 219.23-5.85 219.68-6.7 219.68-7.65L219.68-7.65Q219.68-8.55 219.28-9.33 218.88-10.1 218.06-10.58 217.23-11.05 216.08-11.05L216.08-11.05 210.93-11.05Q208.48-11.05 206.66-11.88 204.83-12.7 203.81-14.3 202.78-15.9 202.78-18.2L202.78-18.2Q202.78-20.15 203.73-21.8 204.68-23.45 206.38-24.48 208.08-25.5 210.28-25.5L210.28-25.5 222.03-25.5 222.03-21.55 210.73-21.55Q209.18-21.55 208.28-20.6 207.38-19.65 207.38-18.35L207.38-18.35Q207.38-17.1 208.31-16.18 209.23-15.25 210.93-15.25L210.93-15.25 215.83-15.25Q218.58-15.25 220.46-14.38 222.33-13.5 223.31-11.85 224.28-10.2 224.28-7.8L224.28-7.8Q224.28-5.75 223.28-3.98 222.28-2.2 220.51-1.1 218.73 0 216.38 0L216.38 0ZM243.23-26.1L243.23-26.1Q239.53-26.1 236.58-24.5 233.63-22.9 231.9-19.88 230.18-16.85 230.18-12.6L230.18-12.6 230.18 11 234.78 11 234.78-4.55 234.88-4.55Q235.73-3 237.1-1.85 238.48-0.7 240.25-0.05 242.03 0.6 243.98 0.6L243.98 0.6Q247.53 0.6 250.33-1 253.13-2.6 254.75-5.53 256.38-8.45 256.38-12.45L256.38-12.45Q256.38-15.6 255.4-18.13 254.43-20.65 252.68-22.45 250.93-24.25 248.53-25.18 246.13-26.1 243.23-26.1ZM243.23-22.15L243.23-22.15Q245.58-22.15 247.5-21 249.43-19.85 250.58-17.75 251.73-15.65 251.73-12.75L251.73-12.75Q251.73-9.95 250.6-7.85 249.48-5.75 247.58-4.55 245.68-3.35 243.28-3.35L243.28-3.35Q240.93-3.35 239-4.5 237.08-5.65 235.95-7.78 234.83-9.9 234.83-12.8L234.83-12.8Q234.83-15.65 235.95-17.75 237.08-19.85 239-21 240.93-22.15 243.23-22.15ZM274.27 0.6L274.27 0.6Q270.38 0.6 267.38-1.18 264.38-2.95 262.63-5.98 260.88-9 260.88-12.75L260.88-12.75Q260.88-16.5 262.63-19.53 264.38-22.55 267.38-24.33 270.38-26.1 274.27-26.1L274.27-26.1Q278.18-26.1 281.2-24.33 284.23-22.55 285.95-19.53 287.68-16.5 287.68-12.75L287.68-12.75Q287.68-9 285.95-5.98 284.23-2.95 281.2-1.18 278.18 0.6 274.27 0.6ZM274.27-3.35L274.27-3.35Q276.93-3.35 278.88-4.6 280.82-5.85 281.93-7.98 283.02-10.1 283.02-12.75L283.02-12.75Q283.02-15.4 281.93-17.53 280.82-19.65 278.88-20.9 276.93-22.15 274.27-22.15L274.27-22.15Q271.68-22.15 269.7-20.9 267.73-19.65 266.63-17.53 265.52-15.4 265.52-12.75L265.52-12.75Q265.52-10.1 266.63-7.98 267.73-5.85 269.7-4.6 271.68-3.35 274.27-3.35ZM307.27 0L301.27 0Q297.87 0 295.95-1.95 294.02-3.9 294.02-7.25L294.02-7.25 294.02-31.9 298.62-31.9 298.62-7.55Q298.62-5.9 299.55-4.93 300.47-3.95 302.12-3.95L302.12-3.95 307.27-3.95 307.27 0ZM307.37-21.55L289.62-21.55 289.62-25.5 307.37-25.5 307.37-21.55Z" opacity="1" transform="matrix(1,0,0,1,0,0)" fill="#000000" class="wordmark-text-0" data-fill-palette-color="primary" id="text-0"></path></svg></g></svg></g><g transform="matrix(1,0,0,1,0,76.49014172332014)"><svg viewBox="0 0 395.52 37.85043212237094" height="37.85043212237094" width="395.52"><g transform="matrix(1,0,0,1,0,0)"><svg width="395.52" viewBox="2 -37.55 522.92 50.05" height="37.85043212237094" data-palette-color="#29231d"><path d="M6.7-32.8L2-31.7 2-36.4 6.7-37.5 6.7-32.8ZM6.8 0L2.1 0 2.1-23.9 6.8-25 6.8 0ZM14.7 0L10 0 10-25 20.45-25Q21.9-25 23-23.95 24.1-22.9 24.1-21.4L24.1-21.4 24.1 0 19.4 0 19.4-18.5Q19.4-19.3 18.85-19.8 18.3-20.3 17.6-20.3L17.6-20.3 14.7-20.3 14.7 0ZM31.99 0L27.29 0 27.29-36.45 31.99-37.55 31.99-12.5 36.7-25 41.39-25 36.7-12.5 41.39 0 36.7 0 34.34-6.3 31.99 0ZM57.09 0L52.39 0 52.39-36.4 57.09-37.45 57.09-25 63.04-25 61.94-20.3 57.09-20.3 57.09 0ZM68.74 0L64.04 0 64.04-36.45 68.74-37.5 68.74-25 74.49-25Q75.99-25 77.04-23.93 78.09-22.85 78.09-21.35L78.09-21.35 78.09 0 73.39 0 73.39-18.5Q73.39-19.25 72.86-19.78 72.34-20.3 71.59-20.3L71.59-20.3 68.74-20.3 68.74 0ZM91.44 0L84.64 0Q83.09 0 82.04-1.07 80.99-2.15 80.99-3.65L80.99-3.65 80.99-21.35Q80.99-22.85 82.04-23.93 83.09-25 84.64-25L84.64-25 91.44-25Q92.94-25 93.99-23.93 95.04-22.85 95.04-21.35L95.04-21.35 95.04-3.65Q95.04-2.15 93.99-1.07 92.94 0 91.44 0L91.44 0ZM87.49-4.7L87.49-4.7 88.54-4.7Q89.29-4.7 89.84-5.23 90.39-5.75 90.39-6.5L90.39-6.5 90.39-18.5Q90.39-19.25 89.84-19.78 89.29-20.3 88.54-20.3L88.54-20.3 87.49-20.3Q86.74-20.3 86.21-19.78 85.69-19.25 85.69-18.5L85.69-18.5 85.69-6.5Q85.69-5.75 86.21-5.23 86.74-4.7 87.49-4.7ZM112.68 0L102.23 0Q100.68 0 99.63-1.05 98.58-2.1 98.58-3.65L98.58-3.65 98.58-25 103.28-25 103.28-6.5Q103.28-5.8 103.83-5.25 104.38-4.7 105.08-4.7L105.08-4.7 107.98-4.7 107.98-25 112.68-25 112.68 0ZM126.63 12.5L119.83 12.5Q118.38 12.5 117.28 11.45 116.18 10.4 116.18 8.85L116.18 8.85 116.18 3.4 120.88 4.5 120.88 6Q120.88 6.7 121.43 7.25 121.98 7.8 122.68 7.8L122.68 7.8 123.78 7.8Q124.58 7.8 125.08 7.25 125.58 6.7 125.58 6L125.58 6 125.58 0 119.83 0Q118.38 0 117.28-1.05 116.18-2.1 116.18-3.65L116.18-3.65 116.18-21.35Q116.18-22.9 117.28-23.95 118.38-25 119.83-25L119.83-25 130.28-25 130.28 8.85Q130.28 10.4 129.23 11.45 128.18 12.5 126.63 12.5L126.63 12.5ZM122.68-4.7L122.68-4.7 123.78-4.7Q124.58-4.7 125.08-5.25 125.58-5.8 125.58-6.5L125.58-6.5 125.58-20.3 122.68-20.3Q121.98-20.3 121.43-19.8 120.88-19.3 120.88-18.5L120.88-18.5 120.88-6.5Q120.88-5.8 121.43-5.25 121.98-4.7 122.68-4.7ZM137.98 0L133.28 0 133.28-36.45 137.98-37.5 137.98-25 143.73-25Q145.23-25 146.28-23.93 147.33-22.85 147.33-21.35L147.33-21.35 147.33 0 142.63 0 142.63-18.5Q142.63-19.25 142.1-19.78 141.58-20.3 140.83-20.3L140.83-20.3 137.98-20.3 137.98 0ZM155.53 0L150.83 0 150.83-36.4 155.53-37.45 155.53-25 161.48-25 160.38-20.3 155.53-20.3 155.53 0ZM173.42 0L166.57 0Q165.07 0 164.02-1.07 162.97-2.15 162.97-3.65L162.97-3.65 162.97-7.8 167.62-7.8 167.62-6.5Q167.62-5.75 168.17-5.23 168.72-4.7 169.47-4.7L169.47-4.7 170.52-4.7Q171.27-4.7 171.8-5.23 172.32-5.75 172.32-6.5L172.32-6.5 172.32-8.35Q172.32-9.1 171.8-9.63 171.27-10.15 170.52-10.15L170.52-10.15 166.57-10.15Q165.07-10.15 164.02-11.23 162.97-12.3 162.97-13.8L162.97-13.8 162.97-21.35Q162.97-22.85 164.02-23.93 165.07-25 166.57-25L166.57-25 173.42-25Q174.92-25 175.97-23.93 177.02-22.85 177.02-21.35L177.02-21.35 177.02-17.2 172.32-17.2 172.32-18.5Q172.32-19.25 171.8-19.78 171.27-20.3 170.52-20.3L170.52-20.3 169.47-20.3Q168.72-20.3 168.17-19.78 167.62-19.25 167.62-18.5L167.62-18.5 167.62-16.65Q167.62-15.9 168.17-15.38 168.72-14.85 169.47-14.85L169.47-14.85 173.42-14.85Q174.92-14.85 175.97-13.78 177.02-12.7 177.02-11.2L177.02-11.2 177.02-3.45Q176.97-2.05 175.92-1.03 174.87 0 173.42 0L173.42 0ZM201.62 0L191.17 0Q189.67 0 188.59-1.05 187.52-2.1 187.52-3.65L187.52-3.65 187.52-11.2Q187.52-12.7 188.59-13.78 189.67-14.85 191.17-14.85L191.17-14.85 195.07-14.85Q195.87-14.85 196.39-15.38 196.92-15.9 196.92-16.65L196.92-16.65 196.92-18.5Q196.92-19.25 196.39-19.78 195.87-20.3 195.07-20.3L195.07-20.3 189.67-20.3 190.72-25 197.97-25Q199.47-25 200.54-23.93 201.62-22.85 201.62-21.35L201.62-21.35 201.62 0ZM194.02-4.7L194.02-4.7 196.92-4.7 196.92-10.15 194.02-10.15Q193.27-10.15 192.74-9.63 192.22-9.1 192.22-8.35L192.22-8.35 192.22-6.5Q192.22-5.75 192.74-5.23 193.27-4.7 194.02-4.7ZM209.02 0L204.32 0 204.32-25 214.77-25Q216.22-25 217.32-23.95 218.42-22.9 218.42-21.4L218.42-21.4 218.42 0 213.72 0 213.72-18.5Q213.72-19.3 213.17-19.8 212.62-20.3 211.92-20.3L211.92-20.3 209.02-20.3 209.02 0ZM235.21 0L224.76 0Q223.21 0 222.16-1.05 221.11-2.1 221.11-3.65L221.11-3.65 221.11-21.35Q221.11-22.9 222.16-23.95 223.21-25 224.76-25L224.76-25 230.51-25 230.51-36.4 235.21-37.5 235.21 0ZM227.61-4.7L227.61-4.7 230.51-4.7 230.51-20.3 227.61-20.3Q226.91-20.3 226.36-19.8 225.81-19.3 225.81-18.5L225.81-18.5 225.81-6.5Q225.81-5.8 226.36-5.25 226.91-4.7 227.61-4.7ZM256.66 0L249.81 0Q248.31 0 247.26-1.07 246.21-2.15 246.21-3.65L246.21-3.65 246.21-7.8 250.86-7.8 250.86-6.5Q250.86-5.75 251.41-5.23 251.96-4.7 252.71-4.7L252.71-4.7 253.76-4.7Q254.51-4.7 255.03-5.23 255.56-5.75 255.56-6.5L255.56-6.5 255.56-8.35Q255.56-9.1 255.03-9.63 254.51-10.15 253.76-10.15L253.76-10.15 249.81-10.15Q248.31-10.15 247.26-11.23 246.21-12.3 246.21-13.8L246.21-13.8 246.21-21.35Q246.21-22.85 247.26-23.93 248.31-25 249.81-25L249.81-25 256.66-25Q258.16-25 259.21-23.93 260.26-22.85 260.26-21.35L260.26-21.35 260.26-17.2 255.56-17.2 255.56-18.5Q255.56-19.25 255.03-19.78 254.51-20.3 253.76-20.3L253.76-20.3 252.71-20.3Q251.96-20.3 251.41-19.78 250.86-19.25 250.86-18.5L250.86-18.5 250.86-16.65Q250.86-15.9 251.41-15.38 251.96-14.85 252.71-14.85L252.71-14.85 256.66-14.85Q258.16-14.85 259.21-13.78 260.26-12.7 260.26-11.2L260.26-11.2 260.26-3.45Q260.21-2.05 259.16-1.03 258.11 0 256.66 0L256.66 0ZM267.96 12.5L263.26 12.5 263.26-25 273.71-25Q275.26-25 276.31-23.95 277.36-22.9 277.36-21.35L277.36-21.35 277.36-3.65Q277.36-2.1 276.31-1.05 275.26 0 273.71 0L273.71 0 267.96 0 267.96 12.5ZM267.96-20.3L267.96-4.7 270.86-4.7Q271.56-4.7 272.11-5.25 272.66-5.8 272.66-6.5L272.66-6.5 272.66-18.45Q272.66-19.3 272.11-19.8 271.56-20.3 270.86-20.3L270.86-20.3 267.96-20.3ZM294.45 0L284 0Q282.5 0 281.43-1.05 280.35-2.1 280.35-3.65L280.35-3.65 280.35-11.2Q280.35-12.7 281.43-13.78 282.5-14.85 284-14.85L284-14.85 287.9-14.85Q288.7-14.85 289.23-15.38 289.75-15.9 289.75-16.65L289.75-16.65 289.75-18.5Q289.75-19.25 289.23-19.78 288.7-20.3 287.9-20.3L287.9-20.3 282.5-20.3 283.55-25 290.8-25Q292.3-25 293.38-23.93 294.45-22.85 294.45-21.35L294.45-21.35 294.45 0ZM286.85-4.7L286.85-4.7 289.75-4.7 289.75-10.15 286.85-10.15Q286.1-10.15 285.58-9.63 285.05-9.1 285.05-8.35L285.05-8.35 285.05-6.5Q285.05-5.75 285.58-5.23 286.1-4.7 286.85-4.7ZM302.15 0L297.45 0 297.45-25 307.9-25Q309.4-25 310.48-23.93 311.55-22.85 311.55-21.35L311.55-21.35 311.55-15.9 306.85-16.95 306.85-18.45Q306.85-19.2 306.33-19.75 305.8-20.3 305.05-20.3L305.05-20.3 302.15-20.3 302.15 0ZM318.75 0L314.05 0 314.05-36.45 318.75-37.55 318.75-12.5 323.45-25 328.15-25 323.45-12.5 328.15 0 323.45 0 321.1-6.3 318.75 0ZM349.09 0L342.29 0Q340.74 0 339.69-1.07 338.64-2.15 338.64-3.65L338.64-3.65 338.64-21.35Q338.64-22.85 339.69-23.93 340.74-25 342.29-25L342.29-25 349.09-25Q350.59-25 351.67-23.93 352.74-22.85 352.74-21.35L352.74-21.35 352.74-15.9 348.04-15.9 348.04-18.5Q348.04-19.25 347.49-19.78 346.94-20.3 346.19-20.3L346.19-20.3 345.14-20.3Q344.39-20.3 343.87-19.78 343.34-19.25 343.34-18.5L343.34-18.5 343.34-6.5Q343.34-5.75 343.87-5.23 344.39-4.7 345.14-4.7L345.14-4.7 346.19-4.7Q346.94-4.7 347.49-5.23 348.04-5.75 348.04-6.5L348.04-6.5 348.04-9.1 352.74-9.1 352.74-3.65Q352.74-2.15 351.67-1.07 350.59 0 349.09 0L349.09 0ZM366.09 0L359.29 0Q357.74 0 356.69-1.07 355.64-2.15 355.64-3.65L355.64-3.65 355.64-21.35Q355.64-22.85 356.69-23.93 357.74-25 359.29-25L359.29-25 366.09-25Q367.59-25 368.64-23.93 369.69-22.85 369.69-21.35L369.69-21.35 369.69-3.65Q369.69-2.15 368.64-1.07 367.59 0 366.09 0L366.09 0ZM362.14-4.7L362.14-4.7 363.19-4.7Q363.94-4.7 364.49-5.23 365.04-5.75 365.04-6.5L365.04-6.5 365.04-18.5Q365.04-19.25 364.49-19.78 363.94-20.3 363.19-20.3L363.19-20.3 362.14-20.3Q361.39-20.3 360.87-19.78 360.34-19.25 360.34-18.5L360.34-18.5 360.34-6.5Q360.34-5.75 360.87-5.23 361.39-4.7 362.14-4.7ZM377.64 0L372.94 0 372.94-25 383.39-25Q384.84-25 385.94-23.95 387.04-22.9 387.04-21.4L387.04-21.4 387.04 0 382.34 0 382.34-18.5Q382.34-19.3 381.79-19.8 381.24-20.3 380.54-20.3L380.54-20.3 377.64-20.3 377.64 0ZM399.14 0L394.44 0 389.74-25 394.44-25 396.79-12.5 399.14-25 403.84-25 399.14 0ZM419.43 0L408.98 0Q407.48 0 406.41-1.07 405.33-2.15 405.33-3.65L405.33-3.65 405.33-21.4Q405.33-22.9 406.41-23.95 407.48-25 408.98-25L408.98-25 415.78-25Q417.33-25 418.38-23.95 419.43-22.9 419.43-21.4L419.43-21.4 419.43-13.8Q419.43-12.3 418.38-11.23 417.33-10.15 415.78-10.15L415.78-10.15 410.03-10.15 410.03-6.5Q410.03-5.75 410.56-5.23 411.08-4.7 411.88-4.7L411.88-4.7 418.38-4.7 419.43 0ZM410.03-18.5L410.03-14.85 412.93-14.85Q413.68-14.85 414.21-15.38 414.73-15.9 414.73-16.65L414.73-16.65 414.73-18.5Q414.73-19.25 414.21-19.78 413.68-20.3 412.93-20.3L412.93-20.3 411.88-20.3Q411.08-20.3 410.56-19.78 410.03-19.25 410.03-18.5L410.03-18.5ZM426.63 0L421.93 0 421.93-25 432.38-25Q433.88-25 434.96-23.93 436.03-22.85 436.03-21.35L436.03-21.35 436.03-15.9 431.33-16.95 431.33-18.45Q431.33-19.2 430.81-19.75 430.28-20.3 429.53-20.3L429.53-20.3 426.63-20.3 426.63 0ZM448.98 0L442.13 0Q440.63 0 439.58-1.07 438.53-2.15 438.53-3.65L438.53-3.65 438.53-7.8 443.18-7.8 443.18-6.5Q443.18-5.75 443.73-5.23 444.28-4.7 445.03-4.7L445.03-4.7 446.08-4.7Q446.83-4.7 447.35-5.23 447.88-5.75 447.88-6.5L447.88-6.5 447.88-8.35Q447.88-9.1 447.35-9.63 446.83-10.15 446.08-10.15L446.08-10.15 442.13-10.15Q440.63-10.15 439.58-11.23 438.53-12.3 438.53-13.8L438.53-13.8 438.53-21.35Q438.53-22.85 439.58-23.93 440.63-25 442.13-25L442.13-25 448.98-25Q450.48-25 451.53-23.93 452.58-22.85 452.58-21.35L452.58-21.35 452.58-17.2 447.88-17.2 447.88-18.5Q447.88-19.25 447.35-19.78 446.83-20.3 446.08-20.3L446.08-20.3 445.03-20.3Q444.28-20.3 443.73-19.78 443.18-19.25 443.18-18.5L443.18-18.5 443.18-16.65Q443.18-15.9 443.73-15.38 444.28-14.85 445.03-14.85L445.03-14.85 448.98-14.85Q450.48-14.85 451.53-13.78 452.58-12.7 452.58-11.2L452.58-11.2 452.58-3.45Q452.53-2.05 451.48-1.03 450.43 0 448.98 0L448.98 0ZM469.18 0L458.73 0Q457.23 0 456.15-1.05 455.08-2.1 455.08-3.65L455.08-3.65 455.08-11.2Q455.08-12.7 456.15-13.78 457.23-14.85 458.73-14.85L458.73-14.85 462.63-14.85Q463.43-14.85 463.95-15.38 464.48-15.9 464.48-16.65L464.48-16.65 464.48-18.5Q464.48-19.25 463.95-19.78 463.43-20.3 462.63-20.3L462.63-20.3 457.23-20.3 458.28-25 465.53-25Q467.03-25 468.1-23.93 469.18-22.85 469.18-21.35L469.18-21.35 469.18 0ZM461.58-4.7L461.58-4.7 464.48-4.7 464.48-10.15 461.58-10.15Q460.83-10.15 460.3-9.63 459.78-9.1 459.78-8.35L459.78-8.35 459.78-6.5Q459.78-5.75 460.3-5.23 460.83-4.7 461.58-4.7ZM476.87 0L472.17 0 472.17-36.4 476.87-37.45 476.87-25 482.82-25 481.72-20.3 476.87-20.3 476.87 0ZM489.02-32.8L484.32-31.7 484.32-36.4 489.02-37.5 489.02-32.8ZM489.12 0L484.42 0 484.42-23.9 489.12-25 489.12 0ZM503.97 0L497.17 0Q495.62 0 494.57-1.07 493.52-2.15 493.52-3.65L493.52-3.65 493.52-21.35Q493.52-22.85 494.57-23.93 495.62-25 497.17-25L497.17-25 503.97-25Q505.47-25 506.52-23.93 507.57-22.85 507.57-21.35L507.57-21.35 507.57-3.65Q507.57-2.15 506.52-1.07 505.47 0 503.97 0L503.97 0ZM500.02-4.7L500.02-4.7 501.07-4.7Q501.82-4.7 502.37-5.23 502.92-5.75 502.92-6.5L502.92-6.5 502.92-18.5Q502.92-19.25 502.37-19.78 501.82-20.3 501.07-20.3L501.07-20.3 500.02-20.3Q499.27-20.3 498.74-19.78 498.22-19.25 498.22-18.5L498.22-18.5 498.22-6.5Q498.22-5.75 498.74-5.23 499.27-4.7 500.02-4.7ZM515.52 0L510.82 0 510.82-25 521.27-25Q522.72-25 523.82-23.95 524.92-22.9 524.92-21.4L524.92-21.4 524.92 0 520.22 0 520.22-18.5Q520.22-19.3 519.67-19.8 519.12-20.3 518.42-20.3L518.42-20.3 515.52-20.3 515.52 0Z" opacity="1" transform="matrix(1,0,0,1,0,0)" fill="#000000" class="slogan-text-1" data-fill-palette-color="secondary" id="text-1"></path></svg></g></svg></g></svg></g></svg></g><g transform="matrix(1,0,0,1,113.56407015879257,0)"><svg viewBox="0 0 170.36945968241477 158.01867305474508" height="158.01867305474508" width="170.36945968241477"><g><svg xmlns="http://www.w3.org/2000/svg" xmlns:xlink="http://www.w3.org/1999/xlink" version="1.1" x="0" y="0" viewBox="0.3640000000000003 5.813 99.746 92.515" enable-background="new 0 0 100 100" xml:space="preserve" width="170.36945968241477" height="158.01867305474508" class="icon-icon-0" data-fill-palette-color="accent" id="icon-0"><path d="M49.309 67.053H14.063c-1.064 0-1.924 0.862-1.924 1.921s0.86 1.924 1.924 1.924h35.246c1.062 0 1.921-0.865 1.921-1.924S50.372 67.053 49.309 67.053z" fill="#000000" data-fill-palette-color="accent"></path><path d="M49.309 79.335H14.063c-1.064 0-1.924 0.862-1.924 1.921 0 1.062 0.86 1.921 1.924 1.921h35.246c1.062 0 1.921-0.859 1.921-1.921C51.23 80.197 50.372 79.335 49.309 79.335z" fill="#000000" data-fill-palette-color="accent"></path><path d="M49.309 54.772H14.063c-1.064 0-1.924 0.862-1.924 1.921 0 1.063 0.86 1.924 1.924 1.924h35.246c1.062 0 1.921-0.86 1.921-1.924C51.23 55.635 50.372 54.772 49.309 54.772z" fill="#000000" data-fill-palette-color="accent"></path><path d="M49.309 42.495H14.063c-1.064 0-1.924 0.86-1.924 1.921 0 1.061 0.86 1.923 1.924 1.923h35.246c1.062 0 1.921-0.862 1.921-1.923C51.23 43.354 50.372 42.495 49.309 42.495z" fill="#000000" data-fill-palette-color="accent"></path><path d="M56.219 91.544H7.15V19.34h33.6v14.927c0 0.2 0.078 0.393 0.215 0.532 0.147 0.142 0.338 0.219 0.54 0.219h14.714v14.744l6.778-13.763v-2.647c0-0.908-0.353-1.763-0.999-2.401l-17.43-17.403c-0.632-0.63-1.505-0.993-2.397-0.993H3.761c-0.893 0-1.768 0.364-2.397 0.996-0.637 0.631-1 1.506-1 2.4v78.986c0 0.89 0.363 1.765 1 2.399 0.63 0.632 1.505 0.992 2.397 0.992h55.85c0.887 0 1.77-0.36 2.392-0.992 0.632-0.635 0.994-1.51 0.994-2.399V82.189c-2.298 2.117-4.851 4.455-6.778 6.212V91.544z" fill="#000000" data-fill-palette-color="accent"></path><path d="M82.656 5.813L57.058 57.752c-0.24 0.214-2.338 25.452-2.338 25.452-0.02 0.316 0.093 0.578 0.304 0.686 0.211 0.101 0.49 0.033 0.729-0.183 0 0 18.738-17.039 18.758-17.348l25.599-51.947L82.656 5.813zM81.804 16.472l3.298 1.621L64.237 60.436l-2.45-3.353L81.804 16.472zM59.175 76.345c-0.161 0.142-0.349 0.186-0.49 0.118-0.138-0.069-0.221-0.245-0.201-0.456 0 0 0.584-15.135 0.741-15.277 0.155-0.143 0.343-0.191 0.48-0.115l3.964 5.561 6.966-0.179c0.142 0.066 0.215 0.242 0.199 0.453C70.82 66.66 59.175 76.345 59.175 76.345zM72.163 62.194l-4.151 0.108L88.885 19.96l3.29 1.623L72.163 62.194z" fill="#000000" data-fill-palette-color="accent"></path></svg></g></svg></g><g></g></svg></g><defs></defs></svg><rect width="319.90590452176383" height="247.2" fill="none" stroke="none" visibility="hidden"></rect></g></svg></g></svg>